<svg xmlns="http://www.w3.org/2000/svg" viewBox="0 0 64 64" width="64" height="64">
  <defs>
    <linearGradient id="icoGrad" x1="0%" y1="0%" x2="100%" y2="100%">
      <stop offset="0%" stop-color="#00E5FF" />
      <stop offset="100%" stop-color="#0072FF" />
    </linearGradient>
  </defs>
  <rect width="64" height="64" rx="14" fill="#0B0F17" />
  <path d="M 32 6 L 54 15 L 54 42 C 54 54 32 60 32 60 C 32 60 10 54 10 42 L 10 15 Z"
        fill="none" stroke="url(#icoGrad)" stroke-width="2.5" opacity="0.4" />
  <path d="M 32 20 C 24 17 16 19 14 20 L 14 44 C 16 42 24 41 32 44 Z"
        fill="none" stroke="url(#icoGrad)" stroke-width="3" stroke-linejoin="round" />
  <path d="M 32 20 C 40 17 48 19 50 20 L 50 44 C 48 42 40 41 32 44 Z"
        fill="none" stroke="url(#icoGrad)" stroke-width="3" stroke-linejoin="round" />
  <line x1="32" y1="12" x2="32" y2="52" stroke="#00E5FF" stroke-width="2" stroke-dasharray="3 2" />
  <circle cx="32" cy="32" r="4.5" fill="#00E5FF" />
  <circle cx="22" cy="27" r="2" fill="#00E5FF" />
  <circle cx="42" cy="27" r="2" fill="#00E5FF" />
</svg>
