<svg xmlns="http://www.w3.org/2000/svg" viewBox="0 0 500 120" width="100%" height="100%">
  <defs>
    <linearGradient id="primaryGlow" x1="0%" y1="0%" x2="100%" y2="100%">
      <stop offset="0%" stop-color="#00E5FF" />
      <stop offset="100%" stop-color="#0072FF" />
    </linearGradient>
    <filter id="glow" x="-20%" y="-20%" width="140%" height="140%">
      <feGaussianBlur stdDeviation="3" result="blur" />
      <feComposite in="SourceGraphic" in2="blur" operator="over" />
    </filter>
  </defs>
  <rect width="100%" height="100%" fill="#0B0F17" rx="12"/>
  <g transform="translate(24, 20)">
    <path d="M 40 4 L 72 16 L 72 52 C 72 68 40 78 40 78 C 40 78 8 68 8 52 L 8 16 Z"
          fill="none" stroke="url(#primaryGlow)" stroke-width="2.5" stroke-opacity="0.3" />
    <path d="M 40 24 C 30 20 20 22 18 24 L 18 56 C 20 54 30 52 40 56 Z"
          fill="none" stroke="url(#primaryGlow)" stroke-width="3" stroke-linejoin="round" />
    <path d="M 40 24 C 50 20 60 22 62 24 L 62 56 C 60 54 50 52 40 56 Z"
          fill="none" stroke="url(#primaryGlow)" stroke-width="3" stroke-linejoin="round" />
    <line x1="40" y1="14" x2="40" y2="66" stroke="#00E5FF" stroke-width="2.5" stroke-dasharray="4 2" />
    <circle cx="40" cy="40" r="5" fill="#00E5FF" filter="url(#glow)" />
    <circle cx="28" cy="34" r="2" fill="#00E5FF" />
    <circle cx="52" cy="34" r="2" fill="#00E5FF" />
    <path d="M 28 34 L 40 40 L 52 34" fill="none" stroke="#00E5FF" stroke-width="1.5" opacity="0.8" />
  </g>
  <g font-family="-apple-system, BlinkMacSystemFont, 'Segoe UI', Roboto, 'Helvetica Neue', Arial, sans-serif">
    <text x="120" y="58" font-size="28" font-weight="800" fill="#FFFFFF" letter-spacing="1.5">
      RUNBOOK<tspan fill="#00E5FF">OPS</tspan>
    </text>
    <text x="121" y="80" font-size="12" font-weight="600" fill="#64748B" letter-spacing="4">
      AI TRIAGE ENGINE
    </text>
  </g>
</svg>
